<?xml version="1.0" encoding="utf-8"?>
<!-- extracted from GitHub Octicons SVG -->
<svg version="1.1" xmlns="http://www.w3.org/2000/svg" xmlns:xlink="http://www.w3.org/1999/xlink" width="96px" height="112px">
  <defs>
    <g id="image" transform="scale(0.125,-0.125)">
      <path d="M576 768h-576v-896h768v704l-192 192z m-512-64h256c-13-4-27-15-35-43-13-49-7-131 16-209-24-81-123-277-129-288-16-5-65-24-108-60v600z m283-307c58-150 95-150 135-168-84-13-148-22-233-59-4-6 77 146 97 227z m357-461h-640c1 0 1 0 2 0 34 0 85 21 181 182 38 15 72 27 78 29 59 15 125 27 188 33 54-27 127-46 168-48 10-1 16 1 24 2v-198z m0 311c-24 15-54 25-89 25-24 0-51-1-79-4-27 13-93 33-147 190 17 104 13 174 13 174 7 53-23 73-52 73h162l192-192v-265z" />
    </g>
  </defs>

  <use xlink:href="#image" x="0" y="96" fill="#FFFFFF"/>
</svg>
